<svg width="58" height="58" viewBox="0 0 58 58" fill="none" xmlns="http://www.w3.org/2000/svg">
<path d="M28.9999 57.9998C44.8361 57.9998 58 44.8361 58 28.9999C58 13.1352 44.8077 0 28.9715 0C13.1067 0 0 13.1352 0 28.9999C0 44.8361 13.1352 57.9998 28.9999 57.9998ZM21.5793 36.0794C14.5283 29.0568 10.0362 20.1008 15.3528 14.7843C15.6656 14.4714 16.0068 14.1587 16.3195 13.846C17.9401 12.3107 19.5038 12.396 20.8969 14.3578L24.593 19.6175C25.844 21.4371 25.5312 22.4607 24.195 23.8823L23.0293 25.1617C22.6029 25.5596 22.7734 26.0999 22.9725 26.441C23.5127 27.4646 25.0479 29.2842 26.6969 30.9333C28.4028 32.6391 30.1371 34.0891 31.2175 34.6861C31.6156 34.9136 32.1842 34.9705 32.5538 34.6292L33.7763 33.4636C35.141 32.1273 36.2499 31.7862 38.0126 33.0371C40.4577 34.7714 41.9362 35.795 43.3862 36.7901C45.1772 38.0979 45.6038 39.7186 43.7842 41.3675C43.4714 41.6802 43.1871 42.0215 42.8744 42.3342C37.5577 47.6224 28.6303 43.1302 21.5793 36.0794Z" fill="#683531"/>
</svg>
