<svg width="58" height="58" viewBox="0 0 58 58" fill="none" xmlns="http://www.w3.org/2000/svg">
<path d="M29 0C45.0163 0 58 12.9837 58 29C58 45.0163 45.0163 58 29 58C12.9837 58 0 45.0163 0 29C0 12.9837 12.9837 0 29 0ZM12 10.5C11.1716 10.5 10.5 11.1716 10.5 12C10.5 12.8284 11.1716 13.5 12 13.5H13.3604C13.8266 13.5 14.0944 13.5008 14.293 13.5156C14.396 13.5233 14.445 13.5331 14.4619 13.5371C14.531 13.5685 14.5917 13.6184 14.6357 13.6807C14.6195 13.6573 14.6433 13.6754 14.6943 13.8506C14.751 14.0451 14.8089 14.3119 14.9062 14.7705L19.6445 37.1035C19.7143 37.4324 19.7806 37.7475 19.8525 38.0254C17.7634 38.7641 16.2764 40.7704 16.2764 43.1113C16.2765 46.0735 18.658 48.5 21.627 48.5C24.5958 48.4998 26.9774 46.0734 26.9775 43.1113C26.9775 42.2549 26.7767 41.4438 26.4219 40.7227H34.1592C33.8044 41.4438 33.6045 42.255 33.6045 43.1113C33.6046 46.0735 35.9861 48.5 38.9551 48.5C41.9239 48.4998 44.3055 46.0734 44.3057 43.1113C44.3057 40.1492 41.924 37.7229 38.9551 37.7227H24.1182C23.6522 37.7227 23.3839 37.7209 23.1846 37.7061C23.0727 37.6977 23.024 37.687 23.0107 37.6836C22.9426 37.6519 22.8847 37.604 22.8428 37.5459C22.8563 37.5666 22.8335 37.5449 22.7861 37.3818C22.7308 37.1911 22.6745 36.9312 22.5791 36.4814L22.2412 34.8887H40.4346C40.9774 34.8831 41.5448 34.8454 42.0615 34.6328C42.6114 34.4064 43.0935 34.0393 43.459 33.5713L43.46 33.5703C43.9164 32.9851 44.1049 32.2308 44.2988 31.5518L46.9639 22.2188C47.1489 21.5707 47.3163 20.9903 47.4092 20.5059C47.492 20.0737 47.5453 19.5831 47.4463 19.0693L47.3945 18.8477C47.1789 18.0746 46.7005 17.4005 46.042 16.9434L45.9082 16.8545L45.709 16.7412C45.2414 16.4998 44.754 16.4153 44.3174 16.376C43.8288 16.3319 43.2281 16.333 42.5615 16.333H18.3047L17.8408 14.1475C17.7521 13.7293 17.6699 13.3382 17.5752 13.0127C17.4753 12.6695 17.3359 12.3038 17.0879 11.9521C16.7709 11.5028 16.351 11.1375 15.8672 10.8857L15.6562 10.7852L15.5078 10.7246C15.1627 10.5965 14.8268 10.5476 14.5156 10.5244C14.1797 10.4994 13.7821 10.5 13.3604 10.5H12ZM21.627 40.7227C22.9111 40.7228 23.9775 41.778 23.9775 43.1113C23.9774 44.4445 22.9111 45.4998 21.627 45.5C20.3427 45.5 19.2765 44.4446 19.2764 43.1113C19.2764 41.7779 20.3426 40.7227 21.627 40.7227ZM38.9551 40.7227C40.2393 40.7229 41.3057 41.7781 41.3057 43.1113C41.3055 44.4445 40.2392 45.4998 38.9551 45.5C37.6708 45.5 36.6046 44.4446 36.6045 43.1113C36.6045 41.7779 37.6707 40.7227 38.9551 40.7227ZM42.5615 19.333C43.2843 19.333 43.7255 19.3352 44.0479 19.3643C44.2154 19.3794 44.2975 19.3975 44.3281 19.4062C44.4068 19.46 44.4681 19.541 44.499 19.6387C44.4997 19.6652 44.499 19.753 44.4629 19.9414C44.401 20.2642 44.2799 20.6948 44.0801 21.3945L41.4141 30.7285C41.2934 31.1508 41.2227 31.3937 41.1582 31.5713C41.129 31.6515 41.1093 31.6958 41.0986 31.7168L41.0947 31.7246C41.0486 31.7836 40.9875 31.8278 40.9219 31.8555C40.9038 31.8594 40.8585 31.8686 40.7686 31.875C40.5842 31.8882 40.3363 31.8887 39.9023 31.8887H21.6045L18.9414 19.333H42.5615Z" fill="#683531"/>
</svg>
